<mxfile host="app.diagrams.net" agent="Mozilla/5.0 (Windows NT 10.0; Win64; x64) AppleWebKit/537.36 (KHTML, like Gecko) Chrome/129.0.0.0 Safari/537.36" version="24.7.17">
  <diagram id="R2lEEEUBdFMjLlhIrx00" name="Page-1">
    <mxGraphModel dx="882" dy="547" grid="1" gridSize="10" guides="1" tooltips="1" connect="1" arrows="1" fold="1" page="1" pageScale="1" pageWidth="850" pageHeight="1100" math="0" shadow="0" extFonts="Permanent Marker^https://fonts.googleapis.com/css?family=Permanent+Marker">
      <root>
        <mxCell id="0" />
        <mxCell id="1" parent="0" />
        <mxCell id="eBZGxXeslFjGnRm7TSVr-1" value="Lieferung" style="whiteSpace=wrap;html=1;align=center;" vertex="1" parent="1">
          <mxGeometry x="345" y="419" width="100" height="40" as="geometry" />
        </mxCell>
        <mxCell id="eBZGxXeslFjGnRm7TSVr-2" value="Paket" style="whiteSpace=wrap;html=1;align=center;" vertex="1" parent="1">
          <mxGeometry x="665" y="419" width="100" height="40" as="geometry" />
        </mxCell>
        <mxCell id="eBZGxXeslFjGnRm7TSVr-3" value="" style="endArrow=none;html=1;rounded=0;exitX=1;exitY=0.5;exitDx=0;exitDy=0;entryX=0;entryY=0.5;entryDx=0;entryDy=0;" edge="1" parent="1" source="eBZGxXeslFjGnRm7TSVr-9" target="eBZGxXeslFjGnRm7TSVr-2">
          <mxGeometry relative="1" as="geometry">
            <mxPoint x="515" y="539" as="sourcePoint" />
            <mxPoint x="675" y="539" as="targetPoint" />
          </mxGeometry>
        </mxCell>
        <mxCell id="eBZGxXeslFjGnRm7TSVr-5" value="N" style="resizable=0;html=1;whiteSpace=wrap;align=right;verticalAlign=bottom;" connectable="0" vertex="1" parent="eBZGxXeslFjGnRm7TSVr-3">
          <mxGeometry x="1" relative="1" as="geometry" />
        </mxCell>
        <mxCell id="eBZGxXeslFjGnRm7TSVr-6" value="" style="endArrow=none;html=1;rounded=0;exitX=1;exitY=0.5;exitDx=0;exitDy=0;entryX=0;entryY=0.5;entryDx=0;entryDy=0;" edge="1" parent="1" source="eBZGxXeslFjGnRm7TSVr-1" target="eBZGxXeslFjGnRm7TSVr-9">
          <mxGeometry relative="1" as="geometry">
            <mxPoint x="445" y="439" as="sourcePoint" />
            <mxPoint x="665" y="439" as="targetPoint" />
          </mxGeometry>
        </mxCell>
        <mxCell id="eBZGxXeslFjGnRm7TSVr-7" value="1" style="resizable=0;html=1;whiteSpace=wrap;align=left;verticalAlign=bottom;" connectable="0" vertex="1" parent="eBZGxXeslFjGnRm7TSVr-6">
          <mxGeometry x="-1" relative="1" as="geometry" />
        </mxCell>
        <mxCell id="eBZGxXeslFjGnRm7TSVr-9" value="enthält" style="shape=rhombus;perimeter=rhombusPerimeter;whiteSpace=wrap;html=1;align=center;" vertex="1" parent="1">
          <mxGeometry x="490" y="409" width="120" height="60" as="geometry" />
        </mxCell>
        <mxCell id="eBZGxXeslFjGnRm7TSVr-11" style="edgeStyle=orthogonalEdgeStyle;rounded=0;orthogonalLoop=1;jettySize=auto;html=1;exitX=1;exitY=0.5;exitDx=0;exitDy=0;entryX=0.5;entryY=0;entryDx=0;entryDy=0;endArrow=none;endFill=0;" edge="1" parent="1" source="eBZGxXeslFjGnRm7TSVr-10" target="eBZGxXeslFjGnRm7TSVr-1">
          <mxGeometry relative="1" as="geometry" />
        </mxCell>
        <mxCell id="eBZGxXeslFjGnRm7TSVr-10" value="Zeitpunkt" style="ellipse;whiteSpace=wrap;html=1;align=center;fontStyle=4;" vertex="1" parent="1">
          <mxGeometry x="275" y="349" width="100" height="40" as="geometry" />
        </mxCell>
        <mxCell id="eBZGxXeslFjGnRm7TSVr-12" value="Kunde" style="whiteSpace=wrap;html=1;align=center;" vertex="1" parent="1">
          <mxGeometry x="345" y="589" width="100" height="40" as="geometry" />
        </mxCell>
        <mxCell id="eBZGxXeslFjGnRm7TSVr-13" value="" style="endArrow=none;html=1;rounded=0;exitX=0.5;exitY=1;exitDx=0;exitDy=0;entryX=0.5;entryY=0;entryDx=0;entryDy=0;" edge="1" parent="1" source="eBZGxXeslFjGnRm7TSVr-1" target="eBZGxXeslFjGnRm7TSVr-12">
          <mxGeometry relative="1" as="geometry">
            <mxPoint x="435" y="569" as="sourcePoint" />
            <mxPoint x="595" y="569" as="targetPoint" />
          </mxGeometry>
        </mxCell>
        <mxCell id="eBZGxXeslFjGnRm7TSVr-14" value="N" style="resizable=0;html=1;whiteSpace=wrap;align=left;verticalAlign=bottom;" connectable="0" vertex="1" parent="eBZGxXeslFjGnRm7TSVr-13">
          <mxGeometry x="-1" relative="1" as="geometry">
            <mxPoint y="20" as="offset" />
          </mxGeometry>
        </mxCell>
        <mxCell id="eBZGxXeslFjGnRm7TSVr-15" value="1" style="resizable=0;html=1;whiteSpace=wrap;align=right;verticalAlign=bottom;" connectable="0" vertex="1" parent="eBZGxXeslFjGnRm7TSVr-13">
          <mxGeometry x="1" relative="1" as="geometry" />
        </mxCell>
        <mxCell id="eBZGxXeslFjGnRm7TSVr-16" value="an" style="shape=rhombus;perimeter=rhombusPerimeter;whiteSpace=wrap;html=1;align=center;" vertex="1" parent="1">
          <mxGeometry x="335" y="499" width="120" height="60" as="geometry" />
        </mxCell>
        <mxCell id="eBZGxXeslFjGnRm7TSVr-18" style="edgeStyle=orthogonalEdgeStyle;rounded=0;orthogonalLoop=1;jettySize=auto;html=1;exitX=1;exitY=0.5;exitDx=0;exitDy=0;endArrow=none;endFill=0;" edge="1" parent="1" source="eBZGxXeslFjGnRm7TSVr-17">
          <mxGeometry relative="1" as="geometry">
            <mxPoint x="395" y="419" as="targetPoint" />
          </mxGeometry>
        </mxCell>
        <mxCell id="eBZGxXeslFjGnRm7TSVr-17" value="ID (Nummer)" style="ellipse;whiteSpace=wrap;html=1;align=center;" vertex="1" parent="1">
          <mxGeometry x="275" y="289" width="100" height="40" as="geometry" />
        </mxCell>
        <mxCell id="eBZGxXeslFjGnRm7TSVr-19" value="Zusteller" style="whiteSpace=wrap;html=1;align=center;" vertex="1" parent="1">
          <mxGeometry x="60" y="419" width="100" height="40" as="geometry" />
        </mxCell>
        <mxCell id="eBZGxXeslFjGnRm7TSVr-20" value="" style="endArrow=none;html=1;rounded=0;exitX=1;exitY=0.5;exitDx=0;exitDy=0;entryX=0;entryY=0.5;entryDx=0;entryDy=0;" edge="1" parent="1" source="eBZGxXeslFjGnRm7TSVr-19" target="eBZGxXeslFjGnRm7TSVr-1">
          <mxGeometry relative="1" as="geometry">
            <mxPoint x="310" y="480" as="sourcePoint" />
            <mxPoint x="470" y="480" as="targetPoint" />
          </mxGeometry>
        </mxCell>
        <mxCell id="eBZGxXeslFjGnRm7TSVr-21" value="1" style="resizable=0;html=1;whiteSpace=wrap;align=left;verticalAlign=bottom;" connectable="0" vertex="1" parent="eBZGxXeslFjGnRm7TSVr-20">
          <mxGeometry x="-1" relative="1" as="geometry" />
        </mxCell>
        <mxCell id="eBZGxXeslFjGnRm7TSVr-22" value="N" style="resizable=0;html=1;whiteSpace=wrap;align=right;verticalAlign=bottom;" connectable="0" vertex="1" parent="eBZGxXeslFjGnRm7TSVr-20">
          <mxGeometry x="1" relative="1" as="geometry" />
        </mxCell>
        <mxCell id="eBZGxXeslFjGnRm7TSVr-23" value="Verantwortlich für" style="shape=rhombus;perimeter=rhombusPerimeter;whiteSpace=wrap;html=1;align=center;" vertex="1" parent="1">
          <mxGeometry x="190" y="409" width="120" height="60" as="geometry" />
        </mxCell>
        <mxCell id="eBZGxXeslFjGnRm7TSVr-24" value="Arzneimittel" style="whiteSpace=wrap;html=1;align=center;" vertex="1" parent="1">
          <mxGeometry x="665" y="210" width="100" height="40" as="geometry" />
        </mxCell>
        <mxCell id="eBZGxXeslFjGnRm7TSVr-25" value="" style="endArrow=none;html=1;rounded=0;exitX=0.5;exitY=1;exitDx=0;exitDy=0;entryX=0.5;entryY=0;entryDx=0;entryDy=0;" edge="1" parent="1" source="eBZGxXeslFjGnRm7TSVr-24" target="eBZGxXeslFjGnRm7TSVr-2">
          <mxGeometry relative="1" as="geometry">
            <mxPoint x="360" y="380" as="sourcePoint" />
            <mxPoint x="520" y="380" as="targetPoint" />
          </mxGeometry>
        </mxCell>
        <mxCell id="eBZGxXeslFjGnRm7TSVr-26" value="M" style="resizable=0;html=1;whiteSpace=wrap;align=left;verticalAlign=bottom;" connectable="0" vertex="1" parent="eBZGxXeslFjGnRm7TSVr-25">
          <mxGeometry x="-1" relative="1" as="geometry">
            <mxPoint y="20" as="offset" />
          </mxGeometry>
        </mxCell>
        <mxCell id="eBZGxXeslFjGnRm7TSVr-27" value="N" style="resizable=0;html=1;whiteSpace=wrap;align=right;verticalAlign=bottom;" connectable="0" vertex="1" parent="eBZGxXeslFjGnRm7TSVr-25">
          <mxGeometry x="1" relative="1" as="geometry" />
        </mxCell>
        <mxCell id="eBZGxXeslFjGnRm7TSVr-28" value="enthält" style="shape=rhombus;perimeter=rhombusPerimeter;whiteSpace=wrap;html=1;align=center;" vertex="1" parent="1">
          <mxGeometry x="655" y="310" width="120" height="60" as="geometry" />
        </mxCell>
        <mxCell id="eBZGxXeslFjGnRm7TSVr-30" style="edgeStyle=orthogonalEdgeStyle;rounded=0;orthogonalLoop=1;jettySize=auto;html=1;exitX=1;exitY=0.5;exitDx=0;exitDy=0;entryX=0;entryY=0.5;entryDx=0;entryDy=0;endArrow=none;endFill=0;" edge="1" parent="1" source="eBZGxXeslFjGnRm7TSVr-29" target="eBZGxXeslFjGnRm7TSVr-28">
          <mxGeometry relative="1" as="geometry" />
        </mxCell>
        <mxCell id="eBZGxXeslFjGnRm7TSVr-29" value="Menge" style="ellipse;whiteSpace=wrap;html=1;align=center;" vertex="1" parent="1">
          <mxGeometry x="510" y="320" width="100" height="40" as="geometry" />
        </mxCell>
      </root>
    </mxGraphModel>
  </diagram>
</mxfile>
